<?xml version="1.0" standalone="no"?>
<!DOCTYPE svg PUBLIC "-//W3C//DTD SVG 1.1//EN" 
  "http://www.w3.org/Graphics/SVG/1.1/DTD/svg11.dtd">
<svg height="600" width="600" viewBox="0 0 24 24">
  <path d="M0,0 H24 V24 H0" fill="#009688" />
  <path d=" M 17.5,15
            h -3
            c -2,0 -2,-3 0,-3
            h 3.5
            q 2,0 2,2
            v 5
            c 0,6 -16,6 -16,0
            v -10
            c 0,-2 3,-2 3,0
            c 0,-2 3,-2 3,0
            c 0,-2 3,-2 3,0
            v 4
            c 0,2 -3,2 -3,0
            c 0,2 -3,2 -3,0
            c 0,2 -3,2 -3,0
            m 3,0
            v -4
            m 3,0
            v 4
            m 3,-4
            v -7
            c 0,-2 3,-2 3,0
            v 10"
            stroke="#FFFFFF" stroke-width="0.5" fill="none" />
  <path d=" M 12.5,5
            h 3.5
            q 1,4 4,4
            m -4,-4
            q 0,4 -2.5,5
            m 2.5,-5
            c 0,-9.5 11.5,3 0,0
            c -2.5,-9 -10,6 0,0"
            stroke="#FFAB00" stroke-width="0.8" fill="none" />
</svg>
